<svg xmlns="http://www.w3.org/2000/svg" viewBox="0 0 511.854 511.854">
	<path
		d="M20.231 103.974h-.078c-2.21 0-3.959 1.788-3.959 3.999s1.831 3.999 4.038 3.999c2.21 0 3.998-1.788 3.998-3.999s-1.789-3.999-3.999-3.999zm15.996 0h-.079c-2.21 0-3.959 1.788-3.959 3.999s1.831 3.999 4.038 3.999c2.21 0 3.999-1.788 3.999-3.999s-1.789-3.999-3.999-3.999zm15.994 0h-.078c-2.21 0-3.959 1.788-3.959 3.999s1.831 3.999 4.038 3.999c2.21 0 3.998-1.788 3.998-3.999s-1.789-3.999-3.999-3.999z" />
	<path
		d="M411.878 95.976H11.996C5.381 95.976 0 101.358 0 107.973v7.998a3.997 3.997 0 003.999 3.999h415.875c2.211 0 4-1.789 4-3.999v-7.998c0-6.616-5.381-11.997-11.996-11.997zm3.998 15.996H7.997v-3.999a4.004 4.004 0 013.999-3.999h399.882c2.162 0 3.998 1.828 3.998 3.999v3.999z" />
	<path
		d="M419.874 111.972a3.997 3.997 0 00-3.998 3.999v71.978a3.996 3.996 0 003.998 3.999c2.211 0 4-1.789 4-3.999v-71.978a3.997 3.997 0 00-4-3.999zm-415.875 0A3.997 3.997 0 000 115.971V411.88a3.997 3.997 0 003.999 3.999 3.998 3.998 0 003.999-3.999V115.971a3.997 3.997 0 00-3.999-3.999z" />
	<path
		d="M387.884 407.881H3.999A3.997 3.997 0 000 411.88a3.997 3.997 0 003.999 3.999h383.885c2.211 0 4-1.789 4-3.999a3.997 3.997 0 00-4-3.999zm114.66-86.676a3.98 3.98 0 00-5.654.258l-79.975 87.723a3.998 3.998 0 00.266 5.646 3.956 3.956 0 002.693 1.047 3.972 3.972 0 002.953-1.305l79.975-87.723a3.99 3.99 0 00-.258-5.646z" />
	<path
		d="M461.651 328.327c-1.984-.999-4.375-.179-5.365 1.789l-39.988 79.976a3.995 3.995 0 001.789 5.365c.57.289 1.177.422 1.779.422a4.012 4.012 0 003.586-2.211l39.988-79.975a4.006 4.006 0 00-1.789-5.366z" />
	<path
		d="M503.771 323.4a4 4 0 00-4.686-3.171l-39.988 7.748a4.003 4.003 0 00-3.162 4.686 4.004 4.004 0 004.686 3.171l39.988-7.747a3.998 3.998 0 003.162-4.687z" />
	<path
		d="M502.685 321.339l-39.986-40.238a3.99 3.99 0 00-5.654-.016 3.989 3.989 0 00-.016 5.654l39.986 40.238a3.968 3.968 0 002.836 1.18 4.004 4.004 0 002.818-1.164 4.002 4.002 0 00.016-5.654z" />
	<path
		d="M459.863 279.921a3.996 3.996 0 00-3.998 3.999v47.985a3.995 3.995 0 003.998 3.999 3.996 3.996 0 003.998-3.999V283.92a3.996 3.996 0 00-3.998-3.999z" />
	<path
		d="M462.934 329.343l-39.988-47.985a4.005 4.005 0 00-5.631-.508 3.999 3.999 0 00-.516 5.631l39.988 47.986a4.008 4.008 0 005.639.507 4.001 4.001 0 00.508-5.631z" />
	<path
		d="M422.436 280.85a4.015 4.015 0 00-5.639.508l-39.988 47.985a4 4 0 00.516 5.631c.75.625 1.657.93 2.555.93a4.004 4.004 0 003.076-1.437l39.988-47.986a3.999 3.999 0 00-.508-5.631z" />
	<path
		d="M459.863 327.907h-79.975c-2.211 0-4 1.788-4 3.998a3.997 3.997 0 004 3.999h79.975a3.996 3.996 0 003.998-3.999 3.995 3.995 0 00-3.998-3.998z" />
	<path
		d="M423.452 410.092l-39.988-79.976c-.992-1.968-3.396-2.788-5.365-1.789a3.996 3.996 0 00-1.789 5.366l39.988 79.975a4 4 0 007.154-3.576zm-40.746-129.007c-1.57-1.546-4.099-1.553-5.654.016l-39.988 40.238a3.993 3.993 0 00.016 5.654 3.995 3.995 0 005.654-.016l39.988-40.238a4.004 4.004 0 00-.016-5.654z" />
	<path
		d="M380.646 327.977l-39.988-7.748c-2.172-.383-4.266 1.008-4.686 3.171a4.002 4.002 0 003.162 4.687l39.988 7.747c.258.047.516.07.766.07a3.994 3.994 0 003.92-3.241 3.996 3.996 0 00-3.162-4.686z" />
	<path
		d="M422.827 409.186l-79.977-87.723c-1.474-1.641-4.021-1.75-5.646-.258a4.001 4.001 0 00-.266 5.646l79.977 87.723a3.991 3.991 0 002.959 1.305c.961 0 1.93-.344 2.695-1.047a3.99 3.99 0 00.258-5.646zm-42.939-129.265c-2.211 0-4 1.789-4 3.999v47.985a3.997 3.997 0 004 3.999 3.996 3.996 0 003.998-3.999V283.92a3.997 3.997 0 00-3.998-3.999z" />
	<path
		d="M459.863 279.92h-79.975c-2.211 0-4 1.789-4 3.999a3.997 3.997 0 004 3.999h79.975a3.996 3.996 0 003.998-3.999 3.996 3.996 0 00-3.998-3.999zm-39.989-71.977a3.997 3.997 0 00-3.998 3.999v47.985a3.997 3.997 0 003.998 3.999c2.211 0 4-1.789 4-3.999v-47.985a3.997 3.997 0 00-4-3.999zm-53.154 57.153l-31.99-31.99a3.998 3.998 0 10-5.654 5.655l31.99 31.991c.779.78 1.803 1.171 2.826 1.171s2.047-.391 2.828-1.172a4 4 0 000-5.655zm143.963-31.989a3.997 3.997 0 00-5.654 0l-31.998 31.99a3.998 3.998 0 105.654 5.656l31.998-31.991a3.998 3.998 0 000-5.655zM19.994 111.972a3.997 3.997 0 00-3.999 3.999V411.88a3.997 3.997 0 003.999 3.999 3.998 3.998 0 003.999-3.999V115.971a3.997 3.997 0 00-3.999-3.999z" />
	<path
		d="M11.996 143.962H3.999A3.997 3.997 0 000 147.961a3.997 3.997 0 003.999 3.999h7.997a3.997 3.997 0 003.999-3.999 3.997 3.997 0 00-3.999-3.999zm0 23.992H3.999c-2.21 0-3.999 1.788-3.999 3.999s1.789 3.999 3.999 3.999h7.997c2.21 0 3.999-1.788 3.999-3.999s-1.789-3.999-3.999-3.999zm0 23.994H3.999A3.997 3.997 0 000 195.947a3.997 3.997 0 003.999 3.999h7.997a3.997 3.997 0 003.999-3.999 3.997 3.997 0 00-3.999-3.999zm0 23.992H3.999A3.997 3.997 0 000 219.939a3.997 3.997 0 003.999 3.999h7.997a3.997 3.997 0 003.999-3.999 3.997 3.997 0 00-3.999-3.999zm0 23.992H3.999c-2.21 0-3.999 1.789-3.999 3.999s1.789 3.999 3.999 3.999h7.997a3.997 3.997 0 003.999-3.999 3.997 3.997 0 00-3.999-3.999zm0 23.994H3.999A3.996 3.996 0 000 267.924a3.997 3.997 0 003.999 3.999h7.997a3.997 3.997 0 003.999-3.999 3.996 3.996 0 00-3.999-3.998zm0 23.992H3.999A3.997 3.997 0 000 291.917a3.997 3.997 0 003.999 3.999h7.997a3.997 3.997 0 003.999-3.999 3.997 3.997 0 00-3.999-3.999zm0 23.992H3.999A3.997 3.997 0 000 315.909a3.997 3.997 0 003.999 3.999h7.997a3.997 3.997 0 003.999-3.999 3.997 3.997 0 00-3.999-3.999zm0 23.994H3.999A3.997 3.997 0 000 339.903a3.996 3.996 0 003.999 3.998h7.997a3.996 3.996 0 003.999-3.998 3.997 3.997 0 00-3.999-3.999zm0 23.993H3.999A3.996 3.996 0 000 363.895a3.997 3.997 0 003.999 3.999h7.997a3.997 3.997 0 003.999-3.999 3.996 3.996 0 00-3.999-3.998zm0 23.992H3.999A3.996 3.996 0 000 387.887a3.997 3.997 0 003.999 3.999h7.997a3.997 3.997 0 003.999-3.999 3.996 3.996 0 00-3.999-3.998zm63.98-239.927h-31.99a3.997 3.997 0 00-3.999 3.999 3.997 3.997 0 003.999 3.999h31.99a3.997 3.997 0 003.999-3.999 3.997 3.997 0 00-3.999-3.999zm135.959 23.992H107.967c-2.21 0-3.999 1.788-3.999 3.999s1.789 3.999 3.999 3.999h103.968c2.21 0 3.999-1.788 3.999-3.999s-1.789-3.999-3.999-3.999zm-119.963 0H51.984c-2.211 0-3.999 1.788-3.999 3.999s1.789 3.999 3.999 3.999h39.987c2.21 0 4-1.788 4-3.999s-1.789-3.999-3.999-3.999zm215.937 23.994H203.937a3.997 3.997 0 00-3.999 3.999 3.997 3.997 0 003.999 3.999h103.972a3.996 3.996 0 003.998-3.999 3.996 3.996 0 00-3.998-3.999zm-119.967 0H59.981a3.997 3.997 0 00-3.999 3.999 3.997 3.997 0 003.999 3.999h127.961a3.997 3.997 0 003.999-3.999 3.997 3.997 0 00-3.999-3.999zM83.974 239.932H59.981c-2.21 0-3.999 1.789-3.999 3.999s1.789 3.999 3.999 3.999h23.993a3.997 3.997 0 003.999-3.999 3.997 3.997 0 00-3.999-3.999zm126.711 0H99.969c-2.211 0-3.999 1.789-3.999 3.999s1.789 3.999 3.999 3.999h110.716a3.997 3.997 0 003.999-3.999 3.997 3.997 0 00-3.999-3.999zM83.974 335.904H59.981a3.997 3.997 0 00-3.999 3.999 3.996 3.996 0 003.999 3.998h23.993a3.997 3.997 0 003.999-3.998 3.997 3.997 0 00-3.999-3.999zm126.711 0H99.969a3.996 3.996 0 00-3.999 3.999 3.996 3.996 0 003.999 3.998h110.716a3.996 3.996 0 003.999-3.998 3.997 3.997 0 00-3.999-3.999zm33.24-119.964H67.979a3.997 3.997 0 00-3.999 3.999 3.997 3.997 0 003.999 3.999h175.946a3.997 3.997 0 003.999-3.999 3.997 3.997 0 00-3.999-3.999zm-7.998 47.986h-71.978a3.996 3.996 0 00-3.999 3.998 3.997 3.997 0 003.999 3.999h71.978a3.997 3.997 0 003.999-3.999 3.996 3.996 0 00-3.999-3.998zm-55.982 23.992H51.984a3.997 3.997 0 00-3.999 3.999 3.997 3.997 0 003.999 3.999h127.961a3.997 3.997 0 003.999-3.999 3.997 3.997 0 00-3.999-3.999zm-39.988 71.979H51.984a3.996 3.996 0 00-3.999 3.998 3.997 3.997 0 003.999 3.999h87.973a3.997 3.997 0 003.999-3.999 3.996 3.996 0 00-3.999-3.998zm127.964-47.987H155.952a3.997 3.997 0 00-3.999 3.999 3.997 3.997 0 003.999 3.999h111.969c2.211 0 4-1.789 4-3.999a3.997 3.997 0 00-4-3.999zm-127.964 0H59.981a3.997 3.997 0 00-3.999 3.999 3.997 3.997 0 003.999 3.999h79.976a3.997 3.997 0 003.999-3.999 3.997 3.997 0 00-3.999-3.999zm-63.981 71.979h-31.99a3.996 3.996 0 00-3.999 3.998 3.997 3.997 0 003.999 3.999h31.99a3.996 3.996 0 003.999-3.999 3.996 3.996 0 00-3.999-3.998zm167.949-95.971H195.94a3.997 3.997 0 00-3.999 3.999 3.997 3.997 0 003.999 3.999h47.985a3.997 3.997 0 003.999-3.999 3.997 3.997 0 00-3.999-3.999zm-95.971-23.992H59.981a3.996 3.996 0 00-3.999 3.998 3.997 3.997 0 003.999 3.999h87.973a3.996 3.996 0 003.999-3.999 3.996 3.996 0 00-3.999-3.998z" />
</svg>